<?xml version="1.0" standalone="no"?><!DOCTYPE svg PUBLIC "-//W3C//DTD SVG 1.1//EN" "http://www.w3.org/Graphics/SVG/1.1/DTD/svg11.dtd"><svg t="1669293107910" class="icon" viewBox="0 0 1024 1024" version="1.1" xmlns="http://www.w3.org/2000/svg" p-id="3703" xmlns:xlink="http://www.w3.org/1999/xlink" width="200" height="200"><path d="M655.232 517.077333a146.282667 146.282667 0 0 0-136.128-145.92v-126.336a10.154667 10.154667 0 1 0-20.309333 0v126.378667a146.282667 146.282667 0 0 0-136.128 145.92 10.154667 10.154667 0 0 0 10.154666 10.154667h136.128a10.154667 10.154667 0 0 0 10.154667-10.154667v-125.568a125.866667 125.866667 0 0 1-10.154667 251.52h-0.682666a10.154667 10.154667 0 0 0-9.472 10.154667v71.744a10.154667 10.154667 0 1 0 20.309333 0v-61.994667a146.282667 146.282667 0 0 0 136.128-145.898667z m-235.349333-89.066666a125.013333 125.013333 0 0 1 78.933333-36.48v115.413333h-115.413333a125.013333 125.013333 0 0 1 36.48-78.933333z" p-id="3704"></path><path d="M435.818667 714.837333m10.154666 0l125.973334 0q10.154667 0 10.154666 10.154667l0 0q0 10.154667-10.154666 10.154667l-125.973334 0q-10.154667 0-10.154666-10.154667l0 0q0-10.154667 10.154666-10.154667Z" p-id="3705"></path><path d="M463.744 769.024m10.154667 0l70.101333 0q10.154667 0 10.154667 10.154667l0 0q0 10.154667-10.154667 10.154666l-70.101333 0q-10.154667 0-10.154667-10.154666l0 0q0-10.154667 10.154667-10.154667Z" p-id="3706"></path></svg>